<svg xmlns="http://www.w3.org/2000/svg" viewBox="0 0 431.44 441.3"><defs><style>.cls-1{fill:#fff;}</style></defs><title>isotypeWhite</title><g id="Capa_2" data-name="Capa 2"><g id="Capa_1-2" data-name="Capa 1"><path class="cls-1" d="M314.81,204.62c28.32-18.47,42.45-52.68,30.32-84.7-9.39-24.8-33.06-37.7-58.31-34.78-24.53,2.83-44.71,20.32-50.69,49.76-19.24-20.88-44.25-30.66-70.6-21.13-23.48,8.49-42.35,32.05-40.4,60.33L124,239,7.84,146.89,202,27.85c36.7-22.49,76.85-33.29,119.8-25.14,57,10.81,99.06,55.77,107.83,113,10,65.18-22.59,123.79-77.27,158.59l-113.32,72.1c-37.27,23.71-68,51.62-98.64,84-4-55.14-1.23-111.36,46.53-142.49Z"/><path class="cls-1" d="M122.69,440.76c-12,3.13-27.4-7.8-32.52-21.35L.81,182.85c-1.15-3-.93-11.55-.24-16.82l122,93.73Z"/></g></g></svg>