<svg id="Capa_1" data-name="Capa 1" xmlns="http://www.w3.org/2000/svg" viewBox="0 0 1366 768"><defs><style>.cls-1{fill:#fbfbfb;}.cls-2{fill:#fff;}</style></defs><title>isologo monocromo</title><path class="cls-1" d="M987.94,340.78a40.87,40.87,0,0,0-28.36,16.29c-7.3-9.83-17-14.86-28.48-16.32-25.07-3.17-48.74,14.85-48.78,40.71l-.08,55c0,5.23,6.24,8.38,10.48,7.84,4.49-.58,8.4-3.78,8.44-9l.44-52.78c.11-13.55,11.83-22.85,24.83-22.21,13.37.66,23,10.75,23,24.07l.24,52c0,5.77,6.38,8.71,11.08,7.89,5.25-.91,8.25-5,8.27-10.88l.17-50.12c0-14,11.76-23.38,24.75-22.89s22.86,10.45,22.91,24l.18,51.45c0,4.79,4.85,8.3,9,8.5,3.5.17,10.11-2.35,10.1-7.11l-.2-57.46C1034.43,354.76,1012,337.62,987.94,340.78Z"/><path class="cls-1" d="M720.42,340.65l-19.56.17c-19.82.18-37,17.49-36.94,37.82l.13,58.31c0,4.92,6,7.61,9.83,7.38,4.1-.26,9.28-3.05,9.33-8l.5-55.24c.1-11.56,9.13-20.33,19.86-20.33l16,0a10.13,10.13,0,0,0,10.5-10C730.24,346,726.15,340.6,720.42,340.65Z"/><path class="cls-1" d="M755.85,340.56c-3.8-.11-9.67,2.79-9.68,7.8v88c0,5,5.93,8,9.78,8,4,0,9.61-2.85,9.61-8.54l-.12-87.36C765.43,343.28,759.89,340.69,755.85,340.56Z"/><circle class="cls-1" cx="756.1" cy="311.06" r="12.21" transform="translate(416.25 1054.67) rotate(-87.8)"/><path class="cls-1" d="M606.38,302.26l-47,.08c-5.73,0-10.47,5.76-10.46,11.48l.14,122.47c0,5.86,6.23,8.35,10.76,8s8.81-3.66,8.84-8.95l.2-37.82,38.47-.25c27.18-1.64,46.08-24.22,44.32-51C650.08,321.65,631.56,302.22,606.38,302.26Zm25.39,50.21c-.71,13.34-10.58,24.92-24.69,25l-38.18.31-.17-51.44c0-2.44,1.2-3.86,3.8-4.19l35.75.47C623.67,324.16,633.31,337.53,631.77,352.47Z"/><path class="cls-1" d="M1156.71,389.52c-1.43-30.59-27.22-51.79-57.2-49C1071,343.14,1050.28,367.1,1052,396c1,17.47,9.88,33.69,25.5,42.16a57,57,0,0,0,59.92-3.37c1.34,6.74,5.2,9.77,10.56,9.51a9.79,9.79,0,0,0,9-9.92Zm-73.89,29.42c-13.55-11.35-15.63-31.35-5.69-46,6.56-9.64,17.77-14.1,29.42-13.63a32.09,32.09,0,0,1,30.81,28.13l0,22.63C1127.56,427.86,1098.28,431.9,1082.82,418.94Z"/><path class="cls-1" d="M425.68,372.91c19.59-12.77,29.36-36.43,21-58.58-6.5-17.15-22.87-26.07-40.33-24.05-17,2-30.93,14.06-35.05,34.42-13.31-14.45-30.61-21.21-48.83-14.62-16.24,5.88-29.29,22.17-27.95,41.73l-.78,44.87L213.37,333l134.3-82.33c25.38-15.56,53.15-23,82.85-17.39C470,240.75,499,271.84,505.1,311.44c6.91,45.08-15.62,85.61-53.44,109.68L373.29,471c-25.78,16.4-47,35.7-68.22,58.13-2.77-38.14-.85-77,32.18-98.55Z"/><path class="cls-1" d="M293.8,536.23c-8.31,2.16-18.95-5.39-22.49-14.77l-61.79-163.6c-.8-2.11-.65-8-.17-11.63l84.39,64.82Z"/><path class="cls-2" d="M563.91,494.83a7.39,7.39,0,0,1-3.95,1,7.93,7.93,0,0,1-3.14-.62,7.66,7.66,0,0,1-2.51-1.69,7.92,7.92,0,0,1-1.66-2.55,8.8,8.8,0,0,1,0-6.36,7.68,7.68,0,0,1,1.63-2.55,7.47,7.47,0,0,1,2.46-1.7,7.62,7.62,0,0,1,3.07-.61,8,8,0,0,1,2.13.27,7.62,7.62,0,0,1,1.8.73,8.39,8.39,0,0,1,1.48,1.08,8.71,8.71,0,0,1,1.17,1.34l2.21-2a9.9,9.9,0,0,0-3.43-3,11.48,11.48,0,0,0-2.43-.94,11.14,11.14,0,0,0-2.93-.36,10.63,10.63,0,0,0-4.22.84,11,11,0,0,0-3.44,2.29,10.6,10.6,0,0,0-2.33,3.47,11.17,11.17,0,0,0-.84,4.35,11,11,0,0,0,.86,4.35,10.6,10.6,0,0,0,2.35,3.46,11.21,11.21,0,0,0,3.49,2.3,10.94,10.94,0,0,0,4.29.84,10.72,10.72,0,0,0,2.77-.35,10.29,10.29,0,0,0,2.42-1,11.08,11.08,0,0,0,2-1.47,10.73,10.73,0,0,0,1.62-1.83l-2.17-1.86A9.11,9.11,0,0,1,563.91,494.83Z"/><path class="cls-2" d="M609,480a11.18,11.18,0,0,0-3.49-2.29,11.48,11.48,0,0,0-8.62,0,11.23,11.23,0,0,0-3.5,2.29,10.62,10.62,0,0,0-2.34,3.47,11.68,11.68,0,0,0,0,8.7,10.58,10.58,0,0,0,2.34,3.46,11.26,11.26,0,0,0,3.5,2.3,11.48,11.48,0,0,0,8.62,0,11.21,11.21,0,0,0,3.49-2.3,10.58,10.58,0,0,0,2.34-3.46,11.68,11.68,0,0,0,0-8.7A10.62,10.62,0,0,0,609,480Zm-.52,11a7.86,7.86,0,0,1-1.7,2.55,7.94,7.94,0,0,1-11.17,0,7.86,7.86,0,0,1-1.7-2.55,8.62,8.62,0,0,1,0-6.42,7.86,7.86,0,0,1,1.7-2.55,7.94,7.94,0,0,1,11.17,0,7.86,7.86,0,0,1,1.7,2.55,8.62,8.62,0,0,1,0,6.42Z"/><polygon class="cls-2" points="649.38 493.08 637.58 477.21 634.92 477.21 634.92 498.39 637.94 498.39 637.94 482.49 649.74 498.39 652.37 498.39 652.37 477.21 649.38 477.21 649.38 493.08"/><polygon class="cls-2" points="680.59 489.06 689.07 489.06 689.07 486.36 680.59 486.36 680.59 479.91 690.82 479.91 690.82 477.21 677.6 477.21 677.6 498.39 691.12 498.39 691.12 495.66 680.59 495.66 680.59 489.06"/><path class="cls-2" d="M728.68,494.83a7.42,7.42,0,0,1-4,1,8,8,0,0,1-3.14-.62,7.62,7.62,0,0,1-2.5-1.69,7.76,7.76,0,0,1-1.66-2.55,8.34,8.34,0,0,1-.61-3.18,8.52,8.52,0,0,1,.59-3.18,8,8,0,0,1,1.63-2.55,7.54,7.54,0,0,1,5.54-2.31,7.71,7.71,0,0,1,5.4,2.08,8.27,8.27,0,0,1,1.18,1.34l2.2-2a9.74,9.74,0,0,0-3.42-3,11.91,11.91,0,0,0-2.43-.94,11.2,11.2,0,0,0-2.93-.36,10.56,10.56,0,0,0-4.22.84,11,11,0,0,0-3.44,2.29,10.44,10.44,0,0,0-2.33,3.47,11.17,11.17,0,0,0-.84,4.35,10.83,10.83,0,0,0,.86,4.35,10.45,10.45,0,0,0,2.35,3.46,11.21,11.21,0,0,0,3.49,2.3,11.28,11.28,0,0,0,7.06.49,10.22,10.22,0,0,0,2.41-1,10.82,10.82,0,0,0,2-1.47,11.67,11.67,0,0,0,1.62-1.83l-2.18-1.86A9.07,9.07,0,0,1,728.68,494.83Z"/><polygon class="cls-2" points="754.33 479.91 760.73 479.91 760.73 498.39 763.72 498.39 763.72 479.91 770.12 479.91 770.12 477.21 754.33 477.21 754.33 479.91"/><path class="cls-2" d="M798.36,477.21l-8.27,21.18h3.08l2.23-5.76h9.05l2.24,5.76h3.08l-8.27-21.18Zm-2,12.63,3.56-9.39,3.56,9.39Z"/><path class="cls-2" d="M869.27,489a9.5,9.5,0,0,0-1.88-1.27c-.73-.38-1.52-.76-2.39-1.14l-2-.89a9.76,9.76,0,0,1-1.56-.85,3.92,3.92,0,0,1-1-1,2.37,2.37,0,0,1-.38-1.36,2.4,2.4,0,0,1,.27-1.14,2.71,2.71,0,0,1,.77-.89,3.78,3.78,0,0,1,1.21-.58,5.54,5.54,0,0,1,1.58-.21,5.41,5.41,0,0,1,2.37.55,5.05,5.05,0,0,1,2,1.91l2.32-1.59a6.31,6.31,0,0,0-1.31-1.68,7.28,7.28,0,0,0-1.66-1.13,7.7,7.7,0,0,0-1.84-.63,9.18,9.18,0,0,0-1.86-.19,8.21,8.21,0,0,0-2.77.45,7,7,0,0,0-2.19,1.21,5.51,5.51,0,0,0-1.43,1.8,4.82,4.82,0,0,0-.52,2.21,5.11,5.11,0,0,0,.56,2.5,5.78,5.78,0,0,0,1.43,1.71,9.33,9.33,0,0,0,2,1.2c.74.33,1.47.67,2.19,1l1.93.87a8.71,8.71,0,0,1,1.5.84,3.55,3.55,0,0,1,1,1,2.62,2.62,0,0,1,.35,1.38,2.13,2.13,0,0,1-.29,1.05,3,3,0,0,1-.81.91,4.47,4.47,0,0,1-1.29.66,5.32,5.32,0,0,1-1.72.26,5.24,5.24,0,0,1-4.86-3l-2.5,1.68a7.62,7.62,0,0,0,1.31,1.75,7.92,7.92,0,0,0,1.71,1.29,7.7,7.7,0,0,0,2,.78,9.72,9.72,0,0,0,2.23.26,9.32,9.32,0,0,0,3.13-.48,7,7,0,0,0,2.25-1.28,5.58,5.58,0,0,0,1.38-6.36A5.15,5.15,0,0,0,869.27,489Z"/><rect class="cls-2" x="893.18" y="477.21" width="2.99" height="21.18"/><polygon class="cls-2" points="922.93 489.06 931.41 489.06 931.41 486.36 922.93 486.36 922.93 479.91 933.16 479.91 933.16 477.21 919.94 477.21 919.94 498.39 933.47 498.39 933.47 495.66 922.93 495.66 922.93 489.06"/><polygon class="cls-2" points="972.17 493.08 960.37 477.21 957.71 477.21 957.71 498.39 960.73 498.39 960.73 482.49 972.53 498.39 975.16 498.39 975.16 477.21 972.17 477.21 972.17 493.08"/><path class="cls-2" d="M1015.07,480.28a10.45,10.45,0,0,0-3.41-2.25,11.05,11.05,0,0,0-4.3-.82h-7.42v21.18h7.42a11.24,11.24,0,0,0,4.3-.81,10.14,10.14,0,0,0,3.41-2.25,10.39,10.39,0,0,0,2.24-3.38,10.88,10.88,0,0,0,.8-4.18,10.72,10.72,0,0,0-.8-4.14A10.26,10.26,0,0,0,1015.07,480.28Zm-.69,10.67a7.48,7.48,0,0,1-1.71,2.49,7.76,7.76,0,0,1-2.52,1.63,8,8,0,0,1-3.06.59h-4.17V479.91h4.2a8,8,0,0,1,3.06.58,7.64,7.64,0,0,1,4.2,4.13,8.39,8.39,0,0,1,0,6.33Z"/><path class="cls-2" d="M1057.71,480a11.18,11.18,0,0,0-3.49-2.29,11.26,11.26,0,0,0-12.11,2.29,10.32,10.32,0,0,0-2.34,3.47,11.56,11.56,0,0,0,0,8.7,10.28,10.28,0,0,0,2.34,3.46,11.33,11.33,0,0,0,12.11,2.3,11.21,11.21,0,0,0,3.49-2.3,10.28,10.28,0,0,0,2.34-3.46,11.68,11.68,0,0,0,0-8.7A10.32,10.32,0,0,0,1057.71,480Zm-.51,11a7.89,7.89,0,0,1-1.71,2.55,7.73,7.73,0,0,1-2.52,1.68,8.13,8.13,0,0,1-6.13,0,8,8,0,0,1-2.52-1.68,7.86,7.86,0,0,1-1.7-2.55,8.62,8.62,0,0,1,0-6.42,7.86,7.86,0,0,1,1.7-2.55,7.84,7.84,0,0,1,5.59-2.28,7.84,7.84,0,0,1,3.06.6,7.73,7.73,0,0,1,2.52,1.68,7.89,7.89,0,0,1,1.71,2.55,8.62,8.62,0,0,1,0,6.42Z"/><polygon class="cls-2" points="1101.64 479.91 1108.04 479.91 1108.04 498.39 1111.03 498.39 1111.03 479.91 1117.43 479.91 1117.43 477.21 1101.64 477.21 1101.64 479.91"/><path class="cls-2" d="M1154.06,477.21v13.35a5.41,5.41,0,0,1-1.48,3.75,5.3,5.3,0,0,1-1.66,1.15,5.11,5.11,0,0,1-2.11.44,5.2,5.2,0,0,1-2.15-.44,5.42,5.42,0,0,1-1.66-1.15,5.06,5.06,0,0,1-1.07-1.7,5.65,5.65,0,0,1-.38-2.05V477.21h-3v13.53a7.83,7.83,0,0,0,.62,3.12,7.61,7.61,0,0,0,1.72,2.55,8.1,8.1,0,0,0,2.61,1.71,8.91,8.91,0,0,0,6.58,0,8.32,8.32,0,0,0,2.61-1.71,7.91,7.91,0,0,0,1.72-2.55,8,8,0,0,0,.62-3.12V477.21Z"/><polygon class="cls-2" points="1154.15 470.34 1150.65 470.34 1147.78 475.35 1150.26 475.35 1154.15 470.34"/><path class="cls-1" d="M874,430.8l-33.13-36.39L872.11,360a9.88,9.88,0,1,0-14.7-13.2L827.48,379.7l-29.93-32.87c-4.55-5-11.14-3.55-14.39-.8-3.07,2.59-5.12,9.56-.74,14.38l31.28,34.43L781,430.8c-5,5.48-3.22,12.07-.19,14.86s10,3.87,14.4-.93l31.92-35.14,32.28,35.54c4.35,4.79,11.62,3.48,14.61.73A10.73,10.73,0,0,0,874,430.8Z"/></svg>