<svg xmlns="http://www.w3.org/2000/svg" viewBox="0 0 608.01 146.28"><defs><style>.cls-1{fill:#fbfbfb;}</style></defs><title>Recurso 17</title><g id="Capa_2" data-name="Capa 2"><g id="Capa_1-2" data-name="Capa 1"><path class="cls-1" d="M439,41.92a40.89,40.89,0,0,0-28.36,16.29c-7.3-9.83-17-14.86-28.48-16.31-25.07-3.18-48.74,14.84-48.78,40.71l-.08,55c0,5.23,6.24,8.38,10.48,7.84,4.49-.57,8.4-3.78,8.44-9l.44-52.77c.11-13.56,11.83-22.85,24.83-22.22,13.37.66,23,10.75,23,24.08l.24,52c0,5.78,6.38,8.71,11.08,7.89,5.25-.91,8.25-5,8.27-10.88l.17-50.11C420.3,70.39,432,61,445,61.5s22.86,10.44,22.91,24l.18,51.45c0,4.79,4.85,8.3,9,8.5,3.5.17,10.11-2.35,10.1-7.11L487,80.91C485.46,55.9,463,38.76,439,41.92Z"/><path class="cls-1" d="M171.46,41.79,151.89,42c-19.82.18-37,17.5-36.94,37.82l.13,58.31c0,4.92,6,7.62,9.83,7.38,4.1-.26,9.28-3.05,9.33-8l.5-55.24c.1-11.56,9.13-20.33,19.86-20.33h16a10.14,10.14,0,0,0,10.5-10C181.27,47.15,177.18,41.74,171.46,41.79Z"/><path class="cls-1" d="M206.88,41.71c-3.8-.12-9.67,2.78-9.67,7.79v88c0,5,5.93,8,9.78,8,4,0,9.61-2.85,9.61-8.55l-.12-87.36C216.46,44.42,210.92,41.83,206.88,41.71Z"/><circle class="cls-1" cx="207.13" cy="12.21" r="12.21" transform="translate(186.99 218.72) rotate(-87.8)"/><path class="cls-1" d="M57.41,3.4l-46.94.08C4.73,3.49,0,9.24,0,15L.14,137.43c0,5.86,6.23,8.35,10.76,8s8.81-3.66,8.84-8.95l.2-37.82,38.47-.25c27.18-1.64,46.08-24.22,44.32-51C101.11,22.79,82.59,3.36,57.41,3.4ZM82.8,53.61c-.71,13.34-10.58,24.92-24.69,25L19.93,79l-.17-51.44c0-2.44,1.2-3.86,3.8-4.19l35.75.47C74.7,25.31,84.34,38.68,82.8,53.61Z"/><path class="cls-1" d="M607.74,90.66c-1.43-30.59-27.22-51.79-57.2-49C522,44.28,501.31,68.25,503.06,97.18c1.06,17.47,9.88,33.7,25.5,42.16A57,57,0,0,0,588.48,136c1.34,6.74,5.2,9.77,10.56,9.51a9.78,9.78,0,0,0,9-9.92Zm-73.89,29.42c-13.54-11.35-15.63-31.35-5.69-46,6.56-9.64,17.77-14.1,29.42-13.63a32.09,32.09,0,0,1,30.81,28.13l0,22.63C578.59,129,549.31,133,533.85,120.08Z"/><path class="cls-1" d="M323.72,128.44,290.59,92.05l31.23-34.39a10.35,10.35,0,0,0-.51-14.19,10.27,10.27,0,0,0-14.18,1L277.2,77.34,247.26,44.46c-4.54-5-11.13-3.55-14.38-.8-3.07,2.6-5.12,9.57-.74,14.39l31.27,34.43-32.73,36c-5,5.47-3.22,12.06-.19,14.86s10,3.87,14.39-.93l31.92-35.15,32.28,35.54c4.36,4.8,11.63,3.49,14.62.73A10.73,10.73,0,0,0,323.72,128.44Z"/></g></g></svg>